<svg xmlns="http://www.w3.org/2000/svg" xmlns:xlink="http://www.w3.org/1999/xlink" fill="none" version="1.1" width="15" height="15" viewBox="0 0 15 15"><defs><clipPath id="master_svg0_551_65249"><rect x="0" y="0" width="15" height="15" rx="0"/></clipPath></defs><g clip-path="url(#master_svg0_551_65249)"><g><path d="M14.061962881469727,7.495762275390625Q14.061962881469727,7.656682275390625,14.054062881469726,7.817402275390625Q14.046162881469726,7.978132275390625,14.030362881469726,8.138282275390626Q14.014562881469727,8.298422275390624,13.990962881469727,8.457602275390624Q13.967362881469727,8.616782275390625,13.935962881469727,8.774612275390625Q13.904562881469726,8.932432275390624,13.865462881469726,9.088532275390625Q13.826362881469727,9.244632275390625,13.779662881469726,9.398622275390625Q13.732962881469726,9.552612275390626,13.678762881469726,9.704132275390625Q13.624462881469727,9.855642275390625,13.562962881469726,10.004312275390625Q13.501362881469726,10.152982275390626,13.432562881469726,10.298452275390625Q13.363762881469727,10.443922275390625,13.287862881469726,10.585842275390625Q13.212062881469727,10.727762275390624,13.129262881469726,10.865792275390625Q13.046562881469727,11.003782275390625,12.957162881469726,11.137582275390624Q12.867762881469726,11.271382275390625,12.771862881469726,11.400682275390626Q12.676062881469727,11.529882275390625,12.573962881469727,11.654282275390624Q12.471862881469727,11.778682275390626,12.363762881469727,11.897982275390625Q12.255762881469726,12.017182275390624,12.141962881469727,12.130982275390625Q12.028162881469726,12.244782275390625,11.908962881469726,12.352782275390625Q11.789662881469727,12.460882275390626,11.665262881469726,12.562982275390626Q11.540862881469726,12.665082275390626,11.411662881469727,12.760882275390625Q11.282362881469727,12.856782275390625,11.148562881469726,12.946182275390624Q11.014762881469727,13.035582275390626,10.876772881469726,13.118282275390625Q10.738742881469726,13.201082275390625,10.596822881469727,13.276882275390625Q10.454902881469726,13.352782275390625,10.309432881469727,13.421582275390625Q10.163962881469727,13.490382275390624,10.015292881469726,13.551982275390625Q9.866622881469727,13.613482275390625,9.715112881469727,13.667782275390625Q9.563592881469727,13.721982275390625,9.409602881469727,13.768682275390624Q9.255612881469727,13.815382275390625,9.099512881469726,13.854482275390625Q8.943412881469726,13.893582275390624,8.785592881469727,13.924982275390626Q8.627762881469726,13.956382275390625,8.468582881469725,13.979982275390626Q8.309402881469726,14.003582275390626,8.149262881469728,14.019382275390624Q7.989112881469727,14.035182275390625,7.828382881469727,14.043082275390624Q7.6676628814697265,14.050982275390625,7.506742881469727,14.050982275390625Q7.345812881469727,14.050982275390625,7.185092881469727,14.043082275390624Q7.0243628814697265,14.035182275390625,6.864222881469726,14.019382275390624Q6.704072881469727,14.003582275390626,6.5448928814697265,13.979982275390626Q6.385712881469726,13.956382275390625,6.227882881469727,13.924982275390626Q6.070062881469727,13.893582275390624,5.913962881469726,13.854482275390625Q5.757862881469727,13.815382275390625,5.6038728814697265,13.768682275390624Q5.449882881469726,13.721982275390625,5.298362881469727,13.667782275390625Q5.1468528814697265,13.613482275390625,4.9981828814697264,13.551982275390625Q4.849512881469726,13.490382275390624,4.704042881469727,13.421582275390625Q4.558572881469726,13.352782275390625,4.416652881469727,13.276882275390625Q4.274732881469727,13.201082275390625,4.136702881469727,13.118282275390625Q3.9986828814697266,13.035582275390626,3.8648828814697267,12.946182275390624Q3.7310728814697267,12.856782275390625,3.6018228814697264,12.760882275390625Q3.4725728814697265,12.665082275390626,3.3481828814697265,12.562982275390626Q3.2237828814697265,12.460882275390626,3.1045528814697265,12.352782275390625Q2.9853128814697265,12.244782275390625,2.8715328814697267,12.130982275390625Q2.7577428814697265,12.017182275390624,2.6496728814697263,11.897982275390625Q2.5416028814697267,11.778682275390626,2.4395228814697267,11.654282275390624Q2.3374328814697263,11.529882275390625,2.2415728814697267,11.400682275390626Q2.1457128814697266,11.271382275390625,2.0563128814697267,11.137582275390624Q1.9669028814697265,11.003782275390625,1.8841768814697266,10.865792275390625Q1.8014468814697264,10.727762275390624,1.7255898814697266,10.585842275390625Q1.6497318814697266,10.443922275390625,1.5809298814697266,10.298452275390625Q1.5121278814697265,10.152982275390626,1.4505458814697265,10.004312275390625Q1.3889638814697265,9.855642275390625,1.3347518814697266,9.704132275390625Q1.2805388814697265,9.552612275390626,1.2338268814697266,9.398622275390625Q1.1871138814697266,9.244632275390625,1.1480128814697266,9.088532275390625Q1.1089128814697267,8.932432275390624,1.0775188814697265,8.774612275390625Q1.0461246814697265,8.616782275390625,1.0225127814697266,8.457602275390624Q0.9989007814697266,8.298422275390624,0.9831278814697265,8.138282275390626Q0.9673548814697266,7.978132275390625,0.9594588814697266,7.817402275390625Q0.9515628814697266,7.656682275390625,0.9515628814697266,7.495762275390625Q0.9515628814697266,7.334832275390625,0.9594588814697266,7.174112275390625Q0.9673548814697266,7.013382275390625,0.9831278814697265,6.853242275390625Q0.9989007814697266,6.693092275390625,1.0225127814697266,6.533912275390625Q1.0461246814697265,6.374732275390625,1.0775188814697265,6.216902275390625Q1.1089128814697267,6.059082275390625,1.1480128814697266,5.902982275390625Q1.1871138814697266,5.746882275390625,1.2338268814697266,5.592892275390625Q1.2805388814697265,5.438902275390625,1.3347518814697266,5.287382275390625Q1.3889638814697265,5.135872275390625,1.4505458814697265,4.987202275390625Q1.5121278814697265,4.838532275390625,1.5809298814697266,4.693062275390625Q1.6497318814697266,4.547592275390625,1.7255898814697266,4.405672275390625Q1.8014468814697264,4.263752275390625,1.8841768814697266,4.1257222753906255Q1.9669028814697265,3.987702275390625,2.0563128814697267,3.853902275390625Q2.1457128814697266,3.720092275390625,2.2415728814697267,3.590842275390625Q2.3374328814697263,3.461592275390625,2.4395228814697267,3.337202275390625Q2.5416028814697267,3.212802275390625,2.6496728814697263,3.093572275390625Q2.7577428814697265,2.974332275390625,2.8715328814697267,2.860552275390625Q2.9853128814697265,2.746762275390625,3.1045528814697265,2.638692275390625Q3.2237828814697265,2.530622275390625,3.3481828814697265,2.428542275390625Q3.4725728814697265,2.3264522753906247,3.6018228814697264,2.230592275390625Q3.7310728814697267,2.134732275390625,3.8648828814697267,2.045332275390625Q3.9986828814697266,1.955922275390625,4.136702881469727,1.873196275390625Q4.274732881469727,1.7904662753906249,4.416652881469727,1.714609275390625Q4.558572881469726,1.638751275390625,4.704042881469727,1.569949275390625Q4.849512881469726,1.501147275390625,4.9981828814697264,1.439565275390625Q5.1468528814697265,1.377983275390625,5.298362881469727,1.323771275390625Q5.449882881469726,1.269558275390625,5.6038728814697265,1.222846275390625Q5.757862881469727,1.176133275390625,5.913962881469726,1.137032275390625Q6.070062881469727,1.097932275390625,6.227882881469727,1.066538275390625Q6.385712881469726,1.035144075390625,6.5448928814697265,1.011532175390625Q6.704072881469727,0.987920175390625,6.864222881469726,0.972147275390625Q7.0243628814697265,0.956374275390625,7.185092881469727,0.948478275390625Q7.345812881469727,0.940582275390625,7.506742881469727,0.940582275390625Q7.6676628814697265,0.940582275390625,7.828382881469727,0.948478275390625Q7.989112881469727,0.956374275390625,8.149262881469728,0.972147275390625Q8.309402881469726,0.987920175390625,8.468582881469725,1.011532175390625Q8.627762881469726,1.035144075390625,8.785592881469727,1.066538275390625Q8.943412881469726,1.097932275390625,9.099512881469726,1.137032275390625Q9.255612881469727,1.176133275390625,9.409602881469727,1.222846275390625Q9.563592881469727,1.269558275390625,9.715112881469727,1.323771275390625Q9.866622881469727,1.377983275390625,10.015292881469726,1.439565275390625Q10.163962881469727,1.501147275390625,10.309432881469727,1.569949275390625Q10.454902881469726,1.638751275390625,10.596822881469727,1.714609275390625Q10.738742881469726,1.7904662753906249,10.876772881469726,1.873196275390625Q11.014762881469727,1.955922275390625,11.148562881469726,2.045332275390625Q11.282362881469727,2.134732275390625,11.411662881469727,2.230592275390625Q11.540862881469726,2.3264522753906247,11.665262881469726,2.428542275390625Q11.789662881469727,2.530622275390625,11.908962881469726,2.638692275390625Q12.028162881469726,2.746762275390625,12.141962881469727,2.860552275390625Q12.255762881469726,2.974332275390625,12.363762881469727,3.093572275390625Q12.471862881469727,3.212802275390625,12.573962881469727,3.337202275390625Q12.676062881469727,3.461592275390625,12.771862881469726,3.590842275390625Q12.867762881469726,3.720092275390625,12.957162881469726,3.853902275390625Q13.046562881469727,3.987702275390625,13.129262881469726,4.1257222753906255Q13.212062881469727,4.263752275390625,13.287862881469726,4.405672275390625Q13.363762881469727,4.547592275390625,13.432562881469726,4.693062275390625Q13.501362881469726,4.838532275390625,13.562962881469726,4.987202275390625Q13.624462881469727,5.135872275390625,13.678762881469726,5.287382275390625Q13.732962881469726,5.438902275390625,13.779662881469726,5.592892275390625Q13.826362881469727,5.746882275390625,13.865462881469726,5.902982275390625Q13.904562881469726,6.059082275390625,13.935962881469727,6.216902275390625Q13.967362881469727,6.374732275390625,13.990962881469727,6.533912275390625Q14.014562881469727,6.693092275390625,14.030362881469726,6.853242275390625Q14.046162881469726,7.013382275390625,14.054062881469726,7.174112275390625Q14.061962881469727,7.334832275390625,14.061962881469727,7.495762275390625Z" fill="#F7931A" fill-opacity="1" style="mix-blend-mode:passthrough"/></g><g><path d="M9.293701649780274,7.522999853515625L9.219871649780274,7.503229853515625C9.850631649780272,7.660989853515625,10.499561649780272,7.286289853515625,10.669191649780274,6.6530298535156245C10.843081649780274,6.011659853515625,10.461821649780273,5.351269853515625,9.819431649780274,5.181159853515625L9.286521649780273,5.038339853515625L9.603221649780274,3.8563538535156248L8.843411649780274,3.652740853515625L8.526711649780275,4.834719853515625L7.917481649780274,4.671539853515625L8.234761649780273,3.487505853515625L7.473781649780273,3.283599853515625L7.156491649780273,4.467629853515625L5.761811649780274,4.093950853515625L5.539891649780273,4.922319853515625L6.510791649780273,5.182479853515625L5.495651649780274,8.970999853515625L4.524755649780273,8.710849853515626L4.302831649780273,9.539209853515626L5.697511649780274,9.912899853515626L5.369381649780274,11.137499853515624L6.130371649780273,11.341409853515625L6.458491649780274,10.116799853515625L7.067721649780273,10.279989853515625L6.739741649780274,11.504159853515626L7.499561649780274,11.707769853515625L7.827541649780273,10.483599853515624L8.455521649780273,10.651909853515626C9.320801649780273,10.883789853515625,10.210691649780273,10.370069853515625,10.442581649780273,9.504639853515625C10.674461649780273,8.639209853515625,10.158981649780273,7.754889853515625,9.293701649780274,7.522999853515625ZM7.762941649780274,5.489799853515625L8.311671649780273,5.636869853515625L8.675681649780273,5.734429853515625C8.823341649780273,5.773979853515625,8.944041649780274,5.851619853515626,9.038961649780273,5.961919853515624C9.205521649780273,6.142239853515624,9.276711649780275,6.404449853515625,9.208741649780274,6.657719853515625C9.140921649780275,6.910989853515625,8.948141649780274,7.102589853515624,8.713771649780274,7.175399853515625C8.576511649780272,7.223439853515625,8.433251649780274,7.2303298535156255,8.285451649780274,7.190779853515625L7.921431649780273,7.093219853515625L7.372701649780273,6.9461498535156245L7.762941649780274,5.489799853515625ZM8.093261649780274,9.491749853515625C8.075971649780273,9.492779853515625,8.065431649780272,9.489999853515625,8.049611649780275,9.485749853515625L7.331981649780273,9.293419853515626L6.783251649780274,9.146349853515625L7.173481649780273,7.689999853515625L7.722221649780273,7.837069853515625L8.439841649780274,8.029399853515624C8.455661649780273,8.033649853515625,8.466211649780274,8.036429853515624,8.480711649780273,8.045949853515625C8.856301649780274,8.163579853515625,9.076171649780274,8.567439853515625,8.972901649780272,8.952689853515626C8.869631649780274,9.337949853515624,8.477341649780273,9.577739853515624,8.093261649780274,9.491749853515625Z" fill="#FFFFFF" fill-opacity="1" style="mix-blend-mode:passthrough"/></g></g></svg>